<svg width="524" height="525" viewBox="0 0 524 525" fill="none" xmlns="http://www.w3.org/2000/svg">
<path d="M144.187 397.313L186 331.192L92.3587 271.313L44 347.787L121.453 397.313H144.187Z" fill="#F0F0F0"/>
<path fill-rule="evenodd" clip-rule="evenodd" d="M80 409.313H183V389.313H80V409.313ZM181.662 408.023H81.3377V390.604H181.662V408.023Z" fill="#3F3D56"/>
<path d="M190.5 413.313C194.09 413.313 197 410.403 197 406.813C197 403.224 194.09 400.313 190.5 400.313C186.91 400.313 184 403.224 184 406.813C184 410.403 186.91 413.313 190.5 413.313Z" fill="#222F65"/>
<path d="M170.5 413.313C174.09 413.313 177 410.403 177 406.813C177 403.224 174.09 400.313 170.5 400.313C166.91 400.313 164 403.224 164 406.813C164 410.403 166.91 413.313 170.5 413.313Z" fill="#AA66CC"/>
<path d="M133.5 406.313C137.09 406.313 140 403.403 140 399.813C140 396.224 137.09 393.313 133.5 393.313C129.91 393.313 127 396.224 127 399.813C127 403.403 129.91 406.313 133.5 406.313Z" fill="#AA66CC"/>
<path d="M114.5 406.313C118.09 406.313 121 403.403 121 399.813C121 396.224 118.09 393.313 114.5 393.313C110.91 393.313 108 396.224 108 399.813C108 403.403 110.91 406.313 114.5 406.313Z" fill="#AA66CC"/>
<path d="M95.5 406.313C99.0899 406.313 102 403.403 102 399.813C102 396.224 99.0899 393.313 95.5 393.313C91.9101 393.313 89 396.224 89 399.813C89 403.403 91.9101 406.313 95.5 406.313Z" fill="#AA66CC"/>
<path d="M326.462 185.254V134.179H352V109.313H227V234.313H333.855V222.092C333.855 217.491 335.683 213.078 338.936 209.825C342.19 206.571 346.602 204.743 351.203 204.743H352V185.254H326.462Z" fill="#F0F0F0"/>
<rect x="66.6494" y="9.91879" width="41" height="41" transform="rotate(-14 66.6494 9.91879)" fill="#F0F0F0"/>
<rect x="381" y="432.313" width="84" height="17" fill="#AA66CC"/>
<rect x="359" y="346.313" width="123" height="16" fill="#F0F0F0"/>
<rect y="516.313" width="524" height="1" fill="#3F3D56"/>
<path fill-rule="evenodd" clip-rule="evenodd" d="M350.035 524.313H502.965C512.921 524.302 520.989 516.238 521 506.287V222.34C520.989 212.389 512.921 204.325 502.965 204.313H350.035C340.079 204.325 332.011 212.389 332 222.34V506.287C332.011 516.238 340.079 524.302 350.035 524.313ZM333.345 222.34C333.356 213.131 340.822 205.668 350.035 205.658H502.965C512.178 205.668 519.644 213.131 519.655 222.34V506.287C519.644 515.496 512.178 522.958 502.965 522.969H350.035C340.822 522.958 333.356 515.496 333.345 506.287V222.34Z" fill="#3F3D56"/>
<path fill-rule="evenodd" clip-rule="evenodd" d="M405 214.313C405 216.523 406.791 218.313 409 218.313C411.208 218.311 412.998 216.522 413 214.313C413 212.104 411.209 210.313 409 210.313C406.791 210.313 405 212.104 405 214.313ZM406.333 214.313C406.333 212.841 407.527 211.647 409 211.647C410.472 211.648 411.665 212.841 411.667 214.313C411.667 215.786 410.473 216.98 409 216.98C407.527 216.98 406.333 215.786 406.333 214.313Z" fill="#3F3D56"/>
<rect x="419" y="213.313" width="30" height="1" fill="#3F3D56"/>
<path d="M510 223.313V277.313C480.177 277.312 456.001 253.136 456 223.313H510Z" fill="#AA66CC"/>
<path fill-rule="evenodd" clip-rule="evenodd" d="M344 506.313H510V223.313H344V506.313ZM508.656 504.969H345.344V224.658H508.656V504.969Z" fill="#3F3D56"/>
<path opacity="0.1" d="M470.5 274.313C480.717 274.313 489 266.031 489 255.813C489 245.596 480.717 237.313 470.5 237.313C460.283 237.313 452 245.596 452 255.813C452 266.031 460.283 274.313 470.5 274.313Z" fill="black"/>
<path d="M467.5 276.313C477.717 276.313 486 268.031 486 257.813C486 247.596 477.717 239.313 467.5 239.313C457.283 239.313 449 247.596 449 257.813C449 268.031 457.283 276.313 467.5 276.313Z" fill="#AA66CC"/>
<rect x="351" y="234.313" width="26" height="9" fill="#AA66CC"/>
<rect x="365" y="324.313" width="26" height="9" fill="#AA66CC"/>
<path fill-rule="evenodd" clip-rule="evenodd" d="M366 359.313H490V342.313H366V359.313ZM488.652 358.006H367.348V343.621H488.652V358.006Z" fill="#3F3D56"/>
<rect x="359" y="397.313" width="123" height="16" fill="#F0F0F0"/>
<rect x="365" y="374.313" width="26" height="9" fill="#AA66CC"/>
<path fill-rule="evenodd" clip-rule="evenodd" d="M366 410.313H490V393.313H366V410.313ZM488.652 409.006H367.348V394.621H488.652V409.006Z" fill="#3F3D56"/>
<path fill-rule="evenodd" clip-rule="evenodd" d="M385 445.313H470V427.313H385V445.313ZM468.651 444.028H386.349V428.599H468.651V444.028Z" fill="#3F3D56"/>
<path d="M485 352.813C485 355.555 483.28 358.001 480.7 358.929C478.121 359.857 475.237 359.067 473.491 356.954L473.484 356.947C471.783 354.884 471.52 351.989 472.82 349.652C474.12 347.316 476.719 346.014 479.368 346.372C482.018 346.73 484.178 348.675 484.812 351.273C484.811 351.275 484.812 351.276 484.813 351.277C484.815 351.279 484.816 351.279 484.818 351.279C484.938 351.782 484.999 352.297 485 352.813Z" fill="#222F65"/>
<path opacity="0.1" d="M485 352.438C485 355.338 483.235 357.926 480.589 358.907C477.943 359.889 474.985 359.053 473.193 356.818L473.187 356.811C473.064 356.279 473.001 355.735 473 355.188C473 352.289 474.765 349.701 477.411 348.719C480.057 347.738 483.015 348.574 484.807 350.809C484.807 350.811 484.807 350.813 484.809 350.814C484.81 350.815 484.812 350.816 484.813 350.816C484.936 351.348 484.999 351.892 485 352.438Z" fill="black"/>
<path d="M481.5 362.313C485.09 362.313 488 359.403 488 355.813C488 352.224 485.09 349.313 481.5 349.313C477.91 349.313 475 352.224 475 355.813C475 359.403 477.91 362.313 481.5 362.313Z" fill="#AA66CC"/>
<path d="M485 402.813C485 405.555 483.28 408.001 480.7 408.929C478.121 409.857 475.237 409.067 473.491 406.954L473.484 406.947C471.783 404.884 471.52 401.989 472.82 399.652C474.12 397.316 476.719 396.014 479.368 396.372C482.018 396.73 484.178 398.675 484.812 401.273C484.811 401.275 484.812 401.276 484.813 401.277C484.815 401.279 484.816 401.279 484.818 401.279C484.938 401.782 484.999 402.297 485 402.813Z" fill="#222F65"/>
<path opacity="0.1" d="M485 403.438C485 406.338 483.235 408.926 480.589 409.907C477.943 410.889 474.985 410.053 473.193 407.818L473.187 407.811C473.064 407.279 473.001 406.735 473 406.188C473 403.289 474.765 400.701 477.411 399.719C480.057 398.738 483.015 399.574 484.807 401.809C484.807 401.811 484.807 401.813 484.809 401.814C484.81 401.815 484.812 401.816 484.813 401.816C484.936 402.348 484.999 402.892 485 403.438Z" fill="black"/>
<path d="M481.5 413.313C485.09 413.313 488 410.403 488 406.813C488 403.224 485.09 400.313 481.5 400.313C477.91 400.313 475 403.224 475 406.813C475 410.403 477.91 413.313 481.5 413.313Z" fill="#AA66CC"/>
<rect x="334" y="141.313" width="35" height="35" fill="#F0F0F0"/>
<path fill-rule="evenodd" clip-rule="evenodd" d="M462 158.313C462 162.732 465.582 166.313 470 166.313C474.416 166.308 477.995 162.73 478 158.313C478 153.895 474.418 150.313 470 150.313C465.582 150.313 462 153.895 462 158.313ZM463.333 158.313C463.333 154.631 466.318 151.647 470 151.647C473.68 151.651 476.662 154.633 476.667 158.313C476.667 161.995 473.682 164.98 470 164.98C466.318 164.98 463.333 161.995 463.333 158.313Z" fill="#3F3D56"/>
<path fill-rule="evenodd" clip-rule="evenodd" d="M276 279.313H293V262.313H276V279.313ZM291.692 278.006H277.308V263.621H291.692V278.006Z" fill="#3F3D56"/>
<path d="M214 293.218L216.998 294.843L227.198 300.379L243.665 309.313L253.262 291.384C255.087 287.982 255.494 283.988 254.392 280.284C253.29 276.579 250.77 273.468 247.387 271.637C240.044 267.644 230.981 268.882 224.96 274.701L224.955 274.706C223.511 276.102 222.292 277.717 221.343 279.492L214 293.218Z" fill="#2F2E41"/>
<path d="M259 473.394L257.069 496.274L249.827 497.313L245 471.313L259 473.394Z" fill="#FFB8B8"/>
<path d="M247.352 497.932C247.352 497.932 256.927 492.8 258.943 496.905C258.943 496.905 257.431 509.222 263.479 510.761C269.527 512.301 272.047 523.078 263.479 524.104C254.912 525.13 249.368 522.051 246.344 522.051C243.32 522.051 246.344 511.274 246.344 511.274L247.352 497.932Z" fill="#FF5364"/>
<path d="M198 473.394L199.931 496.274L207.173 497.313L212 471.313L198 473.394Z" fill="#FFB8B8"/>
<path d="M210.648 497.932C210.648 497.932 201.073 492.8 199.057 496.905C199.057 496.905 200.569 509.222 194.521 510.761C188.473 512.301 185.953 523.078 194.521 524.104C203.088 525.13 208.632 522.051 211.656 522.051C214.68 522.051 211.656 511.274 211.656 511.274L210.648 497.932Z" fill="#FF5364"/>
<path d="M238.5 297.313C245.956 297.313 252 291.269 252 283.813C252 276.358 245.956 270.313 238.5 270.313C231.044 270.313 225 276.358 225 283.813C225 291.269 231.044 297.313 238.5 297.313Z" fill="#FFB8B8"/>
<path d="M198 309.113L208.495 325.807L220.988 324.796L241.477 326.313C241.477 326.313 243.411 322.398 244.991 318.589C245.855 316.686 246.52 314.697 246.974 312.655C247.474 309.113 240.478 305.572 240.478 305.572C240.478 305.572 240.203 305.522 239.743 305.41C239.134 305.264 238.194 305.021 237.165 304.667C234.841 303.867 232.047 302.512 231.483 300.513C230.483 296.972 237.979 291.913 237.979 291.913L228.984 283.313C228.984 283.313 220.993 294.549 211.288 297.109C210.725 297.259 210.155 297.377 209.579 297.463C209.549 297.468 209.524 297.473 209.494 297.478C198.999 298.996 198 309.113 198 309.113Z" fill="#FFB8B8"/>
<path d="M203.264 305.313L197.477 309.852C197.477 309.852 192.741 331.534 194.319 337.585C195.898 343.636 193.793 349.183 193.793 350.191C193.793 351.2 189.058 389.019 189.058 389.019C189.058 389.019 179.587 409.189 189.584 407.172C199.581 405.155 195.898 384.985 195.898 384.985L208 349.687V319.937L203.264 305.313Z" fill="#FFB8B8"/>
<path d="M243.046 309.313L247.137 312.313L249.183 354.309L264.525 390.305C264.525 390.305 275.776 407.803 268.616 408.303C261.456 408.803 256.854 390.305 256.854 390.305L243.046 355.809L241 322.312L243.046 309.313Z" fill="#FFB8B8"/>
<path d="M217.734 311.313C217.734 311.313 227.821 318.391 243.96 315.863C243.96 315.863 248.499 324.963 245.978 330.019C243.456 335.074 249.004 347.207 250.012 348.724C251.021 350.24 262.621 381.584 266.656 415.456C270.69 449.327 281.786 472.582 272.203 475.616C262.621 478.649 242.951 482.188 240.934 479.154C238.917 476.121 235.891 400.795 235.891 400.795L230.343 429.611C230.343 429.611 237.908 478.649 232.36 479.66C226.812 480.671 192.013 477.638 193.021 471.571C194.03 465.505 204.117 433.655 204.117 433.655C204.117 433.655 203.613 369.957 213.7 357.824C213.7 357.824 217.734 351.251 212.187 342.657C206.639 334.063 207.143 320.413 207.143 320.413C207.143 320.413 211.178 320.413 217.734 311.313Z" fill="#FF5364"/>
<path d="M209 297.666L217.08 316.313L219 315.306L210.642 297.313L209 297.666Z" fill="#2F2E41"/>
<path d="M237 305.313L243.452 319.313L245 319.177L244.474 316.794L239.636 306.054C239.013 305.908 238.052 305.666 237 305.313Z" fill="#2F2E41"/>
<path d="M216.377 294.337C217.366 297.603 220.167 299.942 223.484 300.273C226.802 300.605 229.989 298.864 231.574 295.855C225.208 287.315 230.668 281.95 241.01 277.891C242.603 274.857 242.251 271.136 240.119 268.473C234.346 267.716 228.548 269.674 224.343 273.802L224.338 273.807L216.991 287.79C215.933 289.798 215.712 292.159 216.377 294.337Z" fill="#2F2E41"/>
<path d="M231.5 288.313C232.328 288.313 233 286.97 233 285.313C233 283.657 232.328 282.313 231.5 282.313C230.672 282.313 230 283.657 230 285.313C230 286.97 230.672 288.313 231.5 288.313Z" fill="#FFB8B8"/>
<path d="M237 280.435L252.212 287.313L255 281.172C254.52 278.927 253.514 276.828 252.065 275.046L241.595 270.313L237 280.435Z" fill="#2F2E41"/>
<path d="M273.5 415.313C277.09 415.313 280 412.403 280 408.813C280 405.224 277.09 402.313 273.5 402.313C269.91 402.313 267 405.224 267 408.813C267 412.403 269.91 415.313 273.5 415.313Z" fill="#AA66CC"/>
<path d="M57.5 455.313C59.9853 455.313 62 453.299 62 450.813C62 448.328 59.9853 446.313 57.5 446.313C55.0147 446.313 53 448.328 53 450.813C53 453.299 55.0147 455.313 57.5 455.313Z" fill="#FF6584"/>
<rect x="78" y="474.313" width="1" height="50" fill="#AA66CC"/>
<path d="M79 480.313C82.866 480.313 86 477.179 86 473.313C86 469.447 82.866 466.313 79 466.313C75.134 466.313 72 469.447 72 473.313C72 477.179 75.134 480.313 79 480.313Z" fill="#AA66CC"/>
<path d="M78 504.313C78 504.313 77.0233 483.041 57 485.513L78 504.313Z" fill="#3F3D56"/>
</svg>
