<svg width="21" height="24" viewBox="0 0 21 24" fill="none" xmlns="http://www.w3.org/2000/svg">
<path d="M3.00432 12.2057H1.98285C1.80708 12.206 1.65616 12.3427 1.62276 12.5316L0.0133934 21.5783C-0.028365 21.8146 0.0286412 22.059 0.168777 22.2444C0.308913 22.4298 0.517467 22.5368 0.737241 22.536H8.66282C8.66282 22.9787 9.48588 23.3409 10.5 23.3409C11.5141 23.3409 12.3372 22.9787 12.3372 22.536H20.2628C20.4825 22.5368 20.6911 22.4298 20.8312 22.2444C20.9714 22.059 21.0284 21.8146 20.9866 21.5783L19.3772 12.5316C19.3438 12.3427 19.1929 12.206 19.0172 12.2057H3.00432Z" fill="#E64C3C"/>
<path d="M10.5001 13.3767V20.9263C9.96251 20.6706 9.40226 20.4764 8.82824 20.3468C6.64629 19.8273 4.37737 19.9537 2.25482 20.713C2.13282 20.7538 2.00025 20.7229 1.90393 20.6313C1.80761 20.5398 1.7611 20.4003 1.78083 20.2623L3.00439 12.2057L3.10727 11.5256C3.1336 11.353 3.25802 11.2183 3.41592 11.1916C3.66577 11.1513 3.92298 11.1111 4.18018 11.0789C4.62918 12.0348 5.52821 12.6358 6.50972 12.6363C6.57586 12.6363 6.63832 12.6323 6.70079 12.6282C6.94546 12.6073 7.18645 12.5505 7.41729 12.4592C7.41805 12.4678 7.42056 12.476 7.42464 12.4834C7.69957 13.3267 8.42947 13.8892 9.24712 13.8878C9.70753 13.8895 10.1528 13.7079 10.5001 13.3767Z" fill="#F5EFCA"/>
<path d="M18.7453 20.713C16.6227 19.9537 14.3538 19.8273 12.1718 20.3468C11.5978 20.4764 11.0376 20.6706 10.5 20.9263V13.3767C10.5773 13.3076 10.6486 13.2308 10.7131 13.1474C11.0802 13.3073 11.4718 13.3892 11.8669 13.3888H11.8889C11.908 13.6766 12.0081 13.9508 12.1755 14.1736C12.5322 14.5597 12.978 14.8323 13.4652 14.9623C13.8188 15.0859 14.1342 15.3144 14.3764 15.6223C14.5924 15.9154 14.9584 16.0184 15.2767 15.8758C15.5568 15.7433 15.7386 15.4415 15.7396 15.1072C15.74 15.0197 15.7276 14.9328 15.7029 14.8496C15.6661 14.7249 15.6257 14.6001 15.578 14.4794C15.4858 14.2301 15.3648 13.9947 15.2179 13.7792C15.9466 13.3475 16.4584 12.5785 16.6105 11.6865C16.6215 11.6704 16.6362 11.6544 16.6472 11.6383C16.7729 11.4762 16.8757 11.2945 16.9522 11.099C17.1653 11.1272 17.3747 11.1553 17.5842 11.1916C17.742 11.2183 17.8665 11.353 17.8928 11.5256L17.9957 12.2057L19.2192 20.2623C19.239 20.4003 19.1925 20.5398 19.0961 20.6313C18.9998 20.7229 18.8673 20.7538 18.7453 20.713Z" fill="#F9EAB0"/>
<path d="M12.3372 22.536C12.3372 22.9787 11.5141 23.3409 10.5 23.3409C9.4859 23.3409 8.66284 22.9787 8.66284 22.536L8.82819 20.3468C9.4022 20.4764 9.96246 20.6706 10.5 20.9263C11.0376 20.6706 11.5978 20.4764 12.1718 20.3468L12.3372 22.536Z" fill="#C03A2B"/>
<path d="M17.1139 10.2579C17.1136 10.5475 17.0585 10.8339 16.9523 11.099C16.8758 11.2945 16.773 11.4762 16.6473 11.6383C16.6363 11.6543 16.6216 11.6704 16.6105 11.6865C16.4585 12.5785 15.9467 13.3475 15.218 13.7792C15.3649 13.9947 15.4859 14.2301 15.578 14.4794C15.6258 14.6001 15.6662 14.7249 15.703 14.8496C15.7277 14.9328 15.7401 15.0197 15.7397 15.1072C15.7387 15.4415 15.5569 15.7433 15.2768 15.8758C14.9585 16.0184 14.5925 15.9154 14.3765 15.6223C14.1343 15.3144 13.8189 15.0859 13.4653 14.9623C12.978 14.8323 12.5322 14.5597 12.1756 14.1736C12.0082 13.9508 11.9081 13.6766 11.889 13.3888H11.867C11.4719 13.3892 11.0803 13.3073 10.7132 13.1474C10.6487 13.2308 10.5774 13.3076 10.5001 13.3767C10.1528 13.7079 9.70755 13.8895 9.24714 13.8878C8.42949 13.8892 7.69959 13.3267 7.42466 12.4834C7.42058 12.476 7.41807 12.4678 7.41731 12.4592C7.18647 12.5505 6.94548 12.6073 6.70081 12.6282C6.63834 12.6323 6.57588 12.6363 6.50974 12.6363C5.51666 12.6355 4.60897 12.0211 4.16423 11.0486C3.71949 10.0761 3.81383 8.91203 4.40801 8.04053C4.36382 7.90912 4.34142 7.7701 4.34187 7.63006C4.33966 7.03533 4.72107 6.52159 5.25311 6.40265C5.25509 6.40046 5.25768 6.39905 5.26046 6.39862C5.25679 6.35033 5.25311 6.30204 5.25311 6.24972C5.25262 6.02653 5.29519 5.80573 5.37804 5.60181C5.61248 5.00796 6.14683 4.62361 6.73755 4.62391C6.96033 4.62275 7.18037 4.67783 7.38056 4.78488C7.77173 4.06357 8.48114 3.62156 9.24714 3.62186C9.7727 3.61977 10.2804 3.83045 10.6728 4.21343C10.898 3.81551 11.3077 3.58921 11.7338 3.62738C12.1598 3.66556 12.5305 3.96179 12.6937 4.39452C12.7986 4.38169 12.9041 4.37497 13.0097 4.3744C14.4333 4.37699 15.6181 5.57313 15.736 7.12702H15.7471C16.0498 7.12702 16.3401 7.25901 16.5538 7.49383C16.7675 7.72866 16.8871 8.04701 16.8861 8.37857C16.8854 8.59539 16.8349 8.80852 16.7391 8.99832C16.983 9.36397 17.1142 9.80512 17.1139 10.2579Z" fill="#FB7B76"/>
<path d="M10.5 1.20729C10.2971 1.20729 10.1326 1.02711 10.1326 0.804859V0.402429C10.1326 0.180174 10.2971 0 10.5 0C10.7029 0 10.8674 0.180174 10.8674 0.402429V0.804859C10.8674 1.02711 10.7029 1.20729 10.5 1.20729Z" fill="#F0C419"/>
<path d="M16.4221 3.97721C16.2735 3.97717 16.1395 3.87912 16.0827 3.72877C16.0258 3.57842 16.0572 3.40535 16.1623 3.29026L16.5297 2.88783C16.622 2.78322 16.7586 2.74126 16.887 2.77809C17.0155 2.81492 17.1158 2.9248 17.1495 3.0655C17.1831 3.2062 17.1448 3.35583 17.0493 3.45687L16.6818 3.8593C16.6129 3.93477 16.5195 3.97719 16.4221 3.97721Z" fill="#F0C419"/>
<path d="M4.57802 3.97721C4.48058 3.97719 4.38713 3.93477 4.31824 3.8593L3.95081 3.45687C3.85529 3.35583 3.81698 3.2062 3.85061 3.0655C3.88423 2.9248 3.98456 2.81492 4.11303 2.77809C4.24149 2.74126 4.37811 2.78322 4.47036 2.88783L4.8378 3.29026C4.94285 3.40535 4.97427 3.57842 4.91741 3.72877C4.86055 3.87912 4.72661 3.97717 4.57802 3.97721Z" fill="#F0C419"/>
<path d="M7.40647 2.28379C7.25786 2.28383 7.12387 2.18583 7.06696 2.03549L6.64514 0.919956C6.59151 0.786479 6.60801 0.63167 6.68826 0.515307C6.76851 0.398943 6.89996 0.339235 7.03185 0.359238C7.16374 0.379241 7.27543 0.475825 7.32379 0.611695L7.74598 1.72723C7.78344 1.82589 7.78354 1.93682 7.74625 2.03556C7.70896 2.13431 7.63734 2.21275 7.54719 2.25361C7.50251 2.27355 7.45472 2.2838 7.40647 2.28379Z" fill="#F0C419"/>
<path d="M13.5934 2.28379C13.5451 2.28368 13.4973 2.27329 13.4526 2.2532C13.3626 2.21235 13.291 2.13397 13.2538 2.03532C13.2165 1.93667 13.2165 1.82585 13.2539 1.72723L13.6761 0.611695C13.7244 0.475825 13.8361 0.379241 13.968 0.359238C14.0999 0.339235 14.2313 0.398943 14.3116 0.515307C14.3918 0.63167 14.4083 0.786479 14.3547 0.919956L13.9329 2.03549C13.876 2.18583 13.742 2.28383 13.5934 2.28379Z" fill="#F0C419"/>
<path d="M17.9682 7.07551C17.7925 7.0761 17.641 6.94035 17.6067 6.75161C17.5724 6.56287 17.6649 6.37395 17.8275 6.30083L18.846 5.83884C18.9673 5.78385 19.1062 5.80391 19.2103 5.89146C19.3144 5.97901 19.368 6.12076 19.3508 6.2633C19.3337 6.40585 19.2484 6.52754 19.1271 6.58253L18.1089 7.04452C18.0643 7.06488 18.0165 7.07541 17.9682 7.07551Z" fill="#F0C419"/>
<path d="M3.0318 7.07551C2.98349 7.07541 2.93567 7.06488 2.89107 7.04452L1.87291 6.58253C1.75161 6.52754 1.66632 6.40585 1.64916 6.2633C1.63199 6.12076 1.68557 5.97901 1.7897 5.89146C1.89383 5.80391 2.0327 5.78385 2.154 5.83884L3.17253 6.30083C3.33506 6.37395 3.42758 6.56287 3.39329 6.75161C3.359 6.94035 3.20751 7.0761 3.0318 7.07551Z" fill="#F0C419"/>
<path d="M16.6472 11.6383C16.6361 11.6544 16.6214 11.6704 16.6104 11.6865C16.5457 12.0741 16.4107 12.4436 16.2136 12.7731C16.0212 12.8329 15.822 12.8627 15.622 12.8616C15.2579 12.8605 14.8991 12.7654 14.5748 12.584C14.4213 12.494 14.2772 12.386 14.1449 12.262C13.9984 12.3242 13.8428 12.3569 13.6856 12.3586C13.2003 12.3613 12.7557 12.0617 12.5392 11.5859C12.4802 11.4573 12.4883 11.3038 12.5605 11.1835C12.6327 11.0631 12.758 10.9941 12.8893 11.0024C13.0206 11.0107 13.1379 11.0951 13.1969 11.2238C13.2695 11.3763 13.3981 11.4878 13.5503 11.53C13.7026 11.5723 13.8641 11.5414 13.9943 11.4451C14.1412 11.3352 14.2292 11.153 14.2294 10.9581C14.23 10.8649 14.2111 10.7727 14.1743 10.6885C14.1003 10.4939 14.176 10.2698 14.3477 10.1747C14.5195 10.0796 14.7291 10.1457 14.8284 10.3263C14.9177 10.5226 14.9642 10.7389 14.9643 10.9581C14.9613 11.2393 14.8806 11.5129 14.7328 11.7429C14.7916 11.7872 14.8504 11.8314 14.9092 11.8676C15.1297 11.9919 15.374 12.0568 15.622 12.0568C15.9989 12.0591 16.3636 11.9102 16.6472 11.6383Z" fill="#FF5364"/>
<path d="M12.1534 10.0583C12.6294 9.69912 12.9567 9.1487 13.0643 8.52667C13.0916 8.38426 13.0466 8.23678 12.9467 8.14095C12.8467 8.04512 12.7072 8.01589 12.582 8.06449C12.4567 8.11309 12.3652 8.23195 12.3426 8.37536C12.2706 8.79042 12.0519 9.15759 11.7341 9.39712C11.1228 9.84806 10.3029 9.74571 9.79996 9.15567C9.66309 8.9912 9.43039 8.97939 9.28023 9.12931C9.13006 9.27922 9.11928 9.53407 9.25616 9.69854C9.56786 10.0755 9.9798 10.3356 10.4338 10.4422C10.2279 10.7591 9.89454 10.9469 9.53945 10.9461C9.33652 10.9461 9.17202 11.1262 9.17202 11.3485C9.17202 11.5708 9.33652 11.7509 9.53945 11.7509C10.3001 11.7543 10.9826 11.2397 11.2513 10.4603C11.5755 10.4013 11.8837 10.264 12.1534 10.0583Z" fill="#FF5364"/>
<path d="M15.5778 14.4794C15.3077 14.6304 15.0175 14.7336 14.718 14.7853C14.6985 14.7886 14.6788 14.7899 14.6592 14.7893C14.4657 14.7912 14.3039 14.6285 14.2894 14.4171C14.2748 14.2058 14.4125 14.0183 14.6041 13.9884C14.8171 13.9531 15.024 13.8826 15.2177 13.7792C15.3646 13.9947 15.4856 14.2301 15.5778 14.4794Z" fill="#FF5364"/>
<path d="M7.39136 11.6705C7.37281 11.7834 7.36298 11.8978 7.36196 12.0125C7.36122 12.1635 7.37977 12.3139 7.41708 12.4592C7.18624 12.5505 6.94525 12.6073 6.70058 12.6282C6.65355 12.4311 6.62887 12.2283 6.62709 12.0246C5.97987 11.9473 5.48926 11.3493 5.48804 10.6362C5.48681 10.4121 5.65086 10.2288 5.85548 10.2257C5.95247 10.2251 6.04571 10.2667 6.11464 10.3415C6.18357 10.4162 6.22253 10.5179 6.22292 10.6241V10.6362C6.22841 10.9542 6.45826 11.213 6.74835 11.2278C6.79915 11.0463 6.86945 10.872 6.95779 10.7086C7.00713 10.6164 7.08839 10.5498 7.18315 10.524C7.27792 10.4983 7.37816 10.5155 7.46117 10.5718C7.63395 10.6888 7.68949 10.9357 7.5861 11.1272C7.4928 11.2945 7.4269 11.4783 7.39136 11.6705Z" fill="#FF5364"/>
<path d="M12.8553 14.0247C12.6345 14.102 12.4065 14.152 12.1755 14.1736C12.0081 13.9508 11.908 13.6766 11.8889 13.3888C11.9245 13.3896 11.96 13.3882 11.9955 13.3848C12.2137 13.3696 12.4295 13.3264 12.6385 13.256C12.7652 13.2084 12.9056 13.2401 13.0047 13.3388C13.1039 13.4374 13.1462 13.5874 13.1151 13.7301C13.084 13.8728 12.9844 13.9857 12.8553 14.0247Z" fill="#FF5364"/>
<path d="M9.69167 6.84129C9.69167 6.61904 9.52716 6.43887 9.32424 6.43887C8.39118 6.43997 7.63505 7.26812 7.63403 8.29004C7.63403 8.5123 7.79854 8.69247 8.00147 8.69247C8.2044 8.69247 8.3689 8.5123 8.3689 8.29004C8.3689 8.01254 8.46955 7.74641 8.64871 7.55018C8.82787 7.35396 9.07087 7.24372 9.32424 7.24372C9.52716 7.24372 9.69167 7.06355 9.69167 6.84129Z" fill="#FF5364"/>
<path d="M4.89577 9.10416C4.82903 9.10424 4.76356 9.08419 4.70654 9.04621C4.40355 8.84596 4.17431 8.53565 4.05875 8.16931C4.00286 7.99515 3.9744 7.81185 3.97461 7.62724C3.97461 6.71521 4.64837 5.97511 5.4811 5.97245C5.95825 5.97045 6.40746 6.21862 6.68959 6.64008C6.76789 6.75553 6.78401 6.90797 6.73188 7.03996C6.67974 7.17196 6.56727 7.26347 6.43683 7.28001C6.30639 7.29656 6.17779 7.23563 6.09949 7.12018C5.95548 6.90496 5.72619 6.77813 5.48257 6.77892C5.13478 6.78106 4.83073 7.03624 4.7384 7.40349C4.64606 7.77073 4.78798 8.16042 5.08574 8.35725C5.22732 8.45049 5.29467 8.63575 5.25036 8.81006C5.20605 8.98437 5.06098 9.10486 4.89577 9.10456V9.10416Z" fill="#FF5364"/>
<path d="M12.7807 5.27625C12.5777 5.27625 12.4132 5.09607 12.4132 4.87382C12.4132 4.4063 12.0672 4.02731 11.6403 4.02731C11.2135 4.02731 10.8674 4.4063 10.8674 4.87382C10.8674 5.09607 10.7029 5.27625 10.5 5.27625C10.2971 5.27625 10.1326 5.09607 10.1326 4.87382C10.1326 3.96179 10.8076 3.22245 11.6403 3.22245C12.4731 3.22245 13.1481 3.96179 13.1481 4.87382C13.1481 4.98055 13.1094 5.08291 13.0405 5.15838C12.9716 5.23385 12.8781 5.27625 12.7807 5.27625Z" fill="#FF5364"/>
<path d="M16.2272 9.91627C16.0566 9.91444 15.9096 9.78423 15.8722 9.6019C15.8349 9.41957 15.9171 9.23308 16.0706 9.15165C16.2171 9.07629 16.3386 8.95315 16.4186 8.79912C16.6055 8.45023 16.5405 8.00518 16.2635 7.7376C15.9865 7.47003 15.5752 7.45497 15.2825 7.7017C15.1202 7.83505 14.8898 7.79901 14.7681 7.62121C14.6463 7.44341 14.6792 7.19116 14.8416 7.05781C15.0987 6.8446 15.4119 6.72827 15.7344 6.72621C16.4443 6.72093 17.0618 7.25778 17.2181 8.0162C17.3745 8.77462 17.0275 9.54995 16.3844 9.87924C16.3352 9.90432 16.2815 9.91697 16.2272 9.91627Z" fill="#FF5364"/>
</svg>
